<svg width="22" height="22" viewBox="0 0 22 22" fill="none" xmlns="http://www.w3.org/2000/svg">
<path d="M11 0.680206C5.15354 0.680206 0.418182 5.41821 0.418182 11.262C0.418182 15.9383 3.44987 19.9038 7.6535 21.3015C8.18259 21.4012 8.37659 21.074 8.37659 20.7927C8.37659 20.5414 8.36777 19.8756 8.36336 18.9938C5.41985 19.6322 4.79905 17.5741 4.79905 17.5741C4.31758 16.3528 3.62183 16.0265 3.62183 16.0265C2.66329 15.3704 3.6959 15.3836 3.6959 15.3836C4.75849 15.4577 5.31668 16.4736 5.31668 16.4736C6.26023 18.0917 7.79371 17.6243 8.39863 17.3536C8.49387 16.6693 8.76635 16.2028 9.06882 15.9383C6.71877 15.6738 4.2488 14.7637 4.2488 10.7091C4.2488 9.55394 4.65884 8.61039 5.33784 7.86967C5.2188 7.60248 4.86166 6.52666 5.43043 5.06901C5.43043 5.06901 6.31666 4.78507 8.34043 6.15365C9.18698 5.9182 10.0864 5.8018 10.9859 5.79651C11.8853 5.8018 12.7848 5.9182 13.6313 6.15365C15.6419 4.78507 16.5281 5.06901 16.5281 5.06901C17.0969 6.52666 16.7397 7.60248 16.6339 7.86967C17.3085 8.61039 17.7186 9.55394 17.7186 10.7091C17.7186 14.7743 15.2451 15.6693 12.8906 15.9295C13.261 16.2469 13.6049 16.896 13.6049 17.8871C13.6049 19.3033 13.5917 20.4409 13.5917 20.7848C13.5917 21.0625 13.7768 21.3932 14.3192 21.2874C18.5528 19.8994 21.5818 15.9312 21.5818 11.262C21.5818 5.41821 16.8438 0.680206 11 0.680206Z" fill="white"/>
</svg>
