<svg width="18" height="10" viewBox="0 0 18 10" fill="none" xmlns="http://www.w3.org/2000/svg">
<path d="M15.8236 7.0098C15.8236 7.0098 17.2378 8.40651 17.5876 9.05282C17.5944 9.06215 17.5998 9.07248 17.6034 9.08344C17.7459 9.3222 17.7809 9.50936 17.711 9.64754C17.5929 9.87581 17.1932 9.99038 17.0576 10H14.5581C14.384 10 14.022 9.95452 13.5812 9.65017C13.2444 9.4149 12.9095 9.02746 12.585 8.64877C12.1005 8.08641 11.6816 7.59839 11.2574 7.59839C11.2038 7.59828 11.1506 7.60715 11.1 7.62463C10.779 7.72608 10.3714 8.18349 10.3714 9.40178C10.3714 9.7831 10.0706 10 9.85981 10H8.71497C8.32491 10 6.29413 9.86356 4.49336 7.96484C2.28678 5.6402 0.30497 0.976911 0.285729 0.935806C0.162413 0.634074 0.42129 0.469652 0.701157 0.469652H3.22521C3.56367 0.469652 3.67387 0.674305 3.75083 0.857967C3.84004 1.06874 4.17063 1.91184 4.71288 2.85902C5.59096 4.40003 6.13058 5.02711 6.56175 5.02711C6.64275 5.02735 6.72239 5.00623 6.79264 4.96589C7.35587 4.65629 7.25092 2.64474 7.22468 2.23019C7.22468 2.14973 7.22381 1.33199 6.9352 0.93668C6.72879 0.653315 6.37721 0.543117 6.16469 0.502886C6.22153 0.420675 6.34223 0.294735 6.49703 0.220395C6.88272 0.0279866 7.57976 0 8.27156 0H8.6555C9.4059 0.010495 9.60005 0.0585971 9.87292 0.127689C10.4222 0.258877 10.4327 0.614833 10.3846 1.82701C10.3706 2.17334 10.3557 2.56341 10.3557 3.02256C10.3557 3.12052 10.3513 3.22984 10.3513 3.34091C10.3347 3.96274 10.3128 4.66329 10.7519 4.95102C10.8088 4.9865 10.8746 5.00528 10.9417 5.00525C11.0938 5.00525 11.5495 5.00525 12.7853 2.88438C13.3275 1.9477 13.7473 0.843099 13.7762 0.760014C13.8007 0.713661 13.8741 0.583348 13.9634 0.530873C14.0268 0.49711 14.0979 0.480244 14.1698 0.481896H17.139C17.4626 0.481896 17.6821 0.530873 17.7249 0.653315C17.7967 0.851846 17.711 1.45793 16.3553 3.29106C16.1271 3.59629 15.9268 3.86042 15.751 4.09131C14.5222 5.70404 14.5222 5.78538 15.8236 7.0098Z" fill="white"/>
</svg>
